<svg id="Calque_1" data-name="Calque 1" xmlns="http://www.w3.org/2000/svg" xmlns:xlink="http://www.w3.org/1999/xlink" viewBox="0 0 6390 5960"><defs><style>.cls-1{fill:none;}.cls-2{clip-path:url(#clip-path);}.cls-3{fill:#ff00a0;}.cls-4{fill:#2e0066;}.cls-5{fill:aqua;}.cls-6{fill:url(#Dégradé_sans_nom_8);}.cls-7{fill:#270046;}.cls-8{fill:url(#Dégradé_sans_nom_14);}.cls-9{fill:url(#Dégradé_sans_nom_14-2);}.cls-10{fill:url(#Dégradé_sans_nom_14-3);}.cls-11{fill:url(#Dégradé_sans_nom_14-4);}.cls-12{fill:#82008a;}.cls-13{fill:#fdfdfd;}.cls-14{fill:url(#Dégradé_sans_nom_8-2);}.cls-15{fill:url(#Dégradé_sans_nom_8-3);}.cls-16{fill:#e537a8;}.cls-17{fill:#ff96ce;}.cls-18{fill:url(#Dégradé_sans_nom_8-4);}.cls-19{fill:#ffaee1;}.cls-20{fill:url(#Dégradé_sans_nom_14-5);}.cls-21{fill:#740277;}.cls-22{fill:url(#Dégradé_sans_nom_14-6);}.cls-23{fill:url(#Dégradé_sans_nom_14-7);}.cls-24{fill:url(#Dégradé_sans_nom_14-8);}.cls-25{fill:url(#Dégradé_sans_nom_14-9);}.cls-26{fill:url(#Dégradé_sans_nom_14-10);}.cls-27{fill:#f8e8d8;}.cls-28{fill:#3f1980;}.cls-29{fill:#502d8b;}.cls-30{fill:#dd678f;}.cls-31{fill:#ff86ab;}.cls-32{fill:#ffa5c6;}.cls-33{fill:#270052;}.cls-34{fill:#27003d;}</style><clipPath id="clip-path"><rect class="cls-1" x="0.3" y="-0.17" width="6390.19" height="5960.17"/></clipPath><linearGradient id="Dégradé_sans_nom_8" x1="2762.14" y1="624.62" x2="3603.16" y2="5407.96" gradientTransform="matrix(1, 0, 0, -1, 0, 5917.71)" gradientUnits="userSpaceOnUse"><stop offset="0" stop-color="#000626"/><stop offset="0.09" stop-color="#0a0535"/><stop offset="0.27" stop-color="#1a034b"/><stop offset="0.46" stop-color="#25015a"/><stop offset="0.68" stop-color="#2b0063"/><stop offset="1" stop-color="#2d0066"/></linearGradient><linearGradient id="Dégradé_sans_nom_14" x1="4890.91" y1="2943.18" x2="4778.4" y2="656.01" gradientTransform="matrix(1, 0, 0, -1, 0, 5917.71)" gradientUnits="userSpaceOnUse"><stop offset="0" stop-color="#ff0098"/><stop offset="0.02" stop-color="#f50096"/><stop offset="0.11" stop-color="#c7008b"/><stop offset="0.21" stop-color="#9d0081"/><stop offset="0.31" stop-color="#7b0078"/><stop offset="0.41" stop-color="#5e0072"/><stop offset="0.53" stop-color="#48006d"/><stop offset="0.65" stop-color="#390069"/><stop offset="0.79" stop-color="#300067"/><stop offset="1" stop-color="#2d0066"/></linearGradient><linearGradient id="Dégradé_sans_nom_14-2" x1="1722.28" y1="3099.02" x2="1609.77" y2="811.85" xlink:href="#Dégradé_sans_nom_14"/><linearGradient id="Dégradé_sans_nom_14-3" x1="3304.42" y1="3021.2" x2="3191.91" y2="734.03" xlink:href="#Dégradé_sans_nom_14"/><linearGradient id="Dégradé_sans_nom_14-4" x1="3268.65" y1="3263.19" x2="3218.65" y2="2169.56" gradientTransform="matrix(1, 0, 0, -1, 0, 5962)" xlink:href="#Dégradé_sans_nom_14"/><linearGradient id="Dégradé_sans_nom_8-2" x1="2189.92" y1="725.26" x2="3030.95" y2="5508.6" xlink:href="#Dégradé_sans_nom_8"/><linearGradient id="Dégradé_sans_nom_8-3" x1="3590.86" y1="478.92" x2="4431.89" y2="5262.26" xlink:href="#Dégradé_sans_nom_8"/><linearGradient id="Dégradé_sans_nom_8-4" x1="2642.16" y1="645.73" x2="3483.19" y2="5429.07" xlink:href="#Dégradé_sans_nom_8"/><linearGradient id="Dégradé_sans_nom_14-5" x1="2280.45" y1="3082.82" x2="3663.3" y2="3732.04" gradientTransform="matrix(1, 0, 0, -1, 0, 5962)" xlink:href="#Dégradé_sans_nom_14"/><linearGradient id="Dégradé_sans_nom_14-6" x1="3856.64" y1="4187.02" x2="3100.62" y2="2756.38" xlink:href="#Dégradé_sans_nom_14"/><linearGradient id="Dégradé_sans_nom_14-7" x1="2534.26" y1="8567.06" x2="2464.96" y2="-1352.43" xlink:href="#Dégradé_sans_nom_14"/><linearGradient id="Dégradé_sans_nom_14-8" x1="3952.42" y1="8557.16" x2="3883.22" y2="-1362.33" xlink:href="#Dégradé_sans_nom_14"/><linearGradient id="Dégradé_sans_nom_14-9" x1="2650.56" y1="8566.26" x2="2581.36" y2="-1353.23" xlink:href="#Dégradé_sans_nom_14"/><linearGradient id="Dégradé_sans_nom_14-10" x1="3291.74" y1="8561.76" x2="3222.54" y2="-1357.73" xlink:href="#Dégradé_sans_nom_14"/></defs><title>Plan de travail 1</title><g id="Calque_2" data-name="Calque 2"><g id="Calque_2-2" data-name="Calque 2-2"><g class="cls-2"><path class="cls-3" d="M4708.84,2685.6c-6.6-38.8,40-69.2,78.7-64.6s71.6,30.9,104.7,52.3,74.2,39.2,110.9,25c52.5-20,62.4-89.4,60.5-145.6s-2.3-122.8,43.8-155.4,110.9-8.1,151.4,30c27.9,26.4,46.8,62.8,75.8,87.5s52,60,88.6,74.5a67.4,67.4,0,0,0,83-30c22.9-39,9-84.8,2.6-126a305.11,305.11,0,0,1,14.7-149.3,272.11,272.11,0,0,1,36-68.1,410,410,0,0,1,42.1-41.9c20,30,60.9,75.6,81,106.1-58.9,43.6-65.6,104.6-60,177.61s-6.5,168.9-62.1,216.51c-38.8,33.2-97.2,36.5-144.5,17.4-64.8-26.2-108.6-87-144.3-144.3-23.9-38.4-88.1-149-138.7-81-35.1,47-16.5,118.3-37,197.41-18.4,71.1-108.3,108.6-174.2,76.1-37.7-18.6-65.7-52.8-102.5-72.9S4726.84,2647.6,4708.84,2685.6Z"/><polygon class="cls-3" points="4461.63 1813.28 4514.43 1866.68 4839.24 1342.16 4776.04 1281.06 4461.63 1813.28"/><path class="cls-4" d="M4452.63,3203.62c-100-456.81-569.22-560-773.12-924.23s-314.21-420-439.11-420-235.31,55.9-439.11,420-673.22,467.41-773.12,924.23,52.9,1527.54,52.9,1890.06l1159.33,62.1,1159.33-62.1C4399.73,4731.16,4552.53,3659.93,4452.63,3203.62Z"/><path class="cls-5" d="M2064.06,3203.62c96.9-456.81,552.42-560,750-924.23s304.91-420,426.11-420c-124.9,0-235.31,55.9-439.11,420S2127.86,2746.81,2028,3203.62s52.9,1527.54,52.9,1890.06l1159.33,62.1-1125-62.1C2115.46,4731.16,1967.36,3659.93,2064.06,3203.62Z"/><path class="cls-3" d="M4452.63,3203.62c-100-456.81-569.22-560-773.12-924.23s-314.21-420-439.11-420c121.2,0,228.31,55.9,426.11,420s653.32,467.41,750,924.23-51.3,1527.54-51.3,1890.06l-1125,62.1,1159.33-62.1C4399.73,4731.16,4552.53,3659.93,4452.63,3203.62Z"/><path class="cls-6" d="M2570.48,2794.51s160.6,746.62,626.72,684,585.72-496.41,638.22-706.62-57.1-578.82-57.1-578.82Z"/><path class="cls-7" d="M3482.3,3333.22c94.5-46.1,225.31-36.5,406.11,146.7s710.82,619.32,814.22,670,838.92,290.81,977.33,504.61-815.32,350.81-815.32,350.81-477.31-353.81-570.92-452-648.12-782-648.12-782S3332.6,3406.23,3482.3,3333.22Z"/><path class="cls-3" d="M4702.64,4149.95c-45-21.9-170.6-116.9-313.11-232.21h0s223,196.71,310,248.71c61.9,36.5,421,168.31,627.92,243.51C5071.35,4284.55,4766.44,4180.95,4702.64,4149.95Z"/><path class="cls-8" d="M5542.76,4537.16c-206.91-124-418.21-208-644.42-291.91-83.9-31.1-177.81-80.5-267.31-80s-183.11,36.1-233.61,109.7a243,243,0,0,1,216.11-149.1c-53.9-36.2-115.2-74.8-169.1-111a473.11,473.11,0,0,1-330-69.3l152,408.71,65.7-80.6-17.6,171.5a70.6,70.6,0,0,1,90-39c17.4,7.4,31.5,22,50,26.7,33.7,8.6,70-18.8,102.6-7.5,43.5,14.9,45.1,82.7,85.9,104,28.7,15,63.8,0,91.2-17s56.2-38.4,88.5-35.8c45.7,3.7,73.2,51.1,111.4,76.2,43.7,28.7,100,27.1,152,24.5C5236.75,4570,5391.56,4544.56,5542.76,4537.16Z"/><path class="cls-4" d="M4893.14,4256.35c-50-20-101.1-40.9-154.8-47.8s-111.5,1.5-154.7,34.2c80-9,156.4,28.6,225.51,69.1s138.3,86,218.31,95.6c36.2,4.4,73.8,1.1,108.3,13,31.1,10.7,106.7,85.9,139.1,72.1,30-12.9,3.1-62.3-12.3-78.3-38-39.4-115.3-54.7-165.21-75Z"/><path class="cls-4" d="M4530.53,4107.45a199.4,199.4,0,0,0-122.6,70,84.1,84.1,0,0,1,50-67.3l-44.6-7.1a27,27,0,0,1,10-26,52.6,52.6,0,0,1,27.2-10C4483.83,4063.34,4508.53,4082.94,4530.53,4107.45Z"/><path class="cls-7" d="M2998.59,3333.22c-94.5-46.1-225.31-36.5-406.11,146.7s-710.82,619.32-814.22,670-838.92,290.81-977.33,504.61,815.32,350.81,815.32,350.81,477.31-353.81,570.92-452,648.12-782,648.12-782S3148.29,3406.23,2998.59,3333.22Z"/><path class="cls-5" d="M1778.25,4149.95c-70,34.2-430,155.5-698.32,296.71,135.3-57.5,655.92-278.41,750-311.11,71.9-25,145.8-106.5,187.31-158.4C1906.66,4064.44,1815.25,4131.75,1778.25,4149.95Z"/><path class="cls-9" d="M938.13,4537.16c206.91-124,418.21-208,644.42-291.91,83.9-31.1,177.81-80.5,267.31-80s183.11,35.8,233.91,109.4a243,243,0,0,0-216.41-148.8c53.9-36.2,115.2-74.8,169.1-111a473.11,473.11,0,0,0,330-69.3l-152,408.71-65.7-80.6,18.6,171.71a70.6,70.6,0,0,0-90-39c-17.4,7.4-31.5,22-50,26.7-33.7,8.6-70-18.8-102.6-7.5-43.5,14.9-45.1,82.7-85.9,104-28.7,15-63.8,0-91.2-17s-56.2-38.4-88.5-35.8c-45.7,3.7-73.2,51.1-111.4,76.2-43.7,28.7-100,27.1-152,24.5C1244.14,4570,1089.33,4544.56,938.13,4537.16Z"/><path class="cls-4" d="M1611.45,4263.05c27.8-11.3,118.5-89.4,146.1-57.6,14.5,16.6-7.5,64.5-17.6,78.3-17.1,23.2-45.5,37.6-70.8,50-63.9,31.3-118.9,71.7-192,80-36.2,4.4-73.8,1.1-108.3,13-31.1,10.7-106.7,85.9-139.1,72.1-30-12.9-3.1-62.3,12.3-78.3,38-39.4,115.3-54.7,165.2-75Z"/><path class="cls-4" d="M1950.36,4107.45a199.4,199.4,0,0,1,122.6,70,84.1,84.1,0,0,0-50-67.3l44.6-7.1a27,27,0,0,0-10-26,52.6,52.6,0,0,0-27.2-10C1997.36,4063.34,1972.36,4082.94,1950.36,4107.45Z"/><path class="cls-10" d="M4144.42,4280c-10-268.91-660.62-930-660.62-930l-248.41,88-244.81-93.7S2336.27,4010.74,2326.37,4280s190,427.31,80,779.52H4064.82C3954.82,4707,4154.32,4548.56,4144.42,4280Z"/><path class="cls-7" d="M3630.31,3814.64c112.1,103.4,274.81,158.9,344.41,294.61,59.3,115.6,32.3,255,0,380.91,167.3-174.81,178.21-476.81,23.9-663.22-74.9-90-178.5-151.2-273.51-220a786,786,0,0,1-140-124.7c-36.1-42.6-53.4-102-86.4-141.1C3392.5,3466.83,3533.7,3725.53,3630.31,3814.64Z"/><path class="cls-7" d="M2657.38,3921.54c93.6-72.8,190-147.1,252.81-247.51s87.2-234.11,29.1-337.61c-110,94.9-233,174.41-345,267.31s-215.21,202.51-270,337.31c-40.9,100.7-35.7,204.91-38.5,310a395.41,395.41,0,0,0,107.1,282.51c-11.3-70-22.6-140.8-21.6-211.81C2374.17,4129,2515.17,4032,2657.38,3921.54Z"/><path class="cls-7" d="M4144.42,4280a194.51,194.51,0,0,0-3.2-27.6,1016.82,1016.82,0,0,1-45.7,157.6c-32.4,85.1-91.2,176.31-182,183.41-56.9,4.5-110-26.2-163.6-45.1a420,420,0,0,0-379.21,55.3l100-153.5c-149.5,70-304.81,140.6-470,141.8-102.6.8-203.31-25.7-302.51-52-85.6-22.7-171.8-45.6-252.11-83.1a435.11,435.11,0,0,1-114-74.7c31.9,212.11,168.81,371.81,73.5,676.92H4064.82C3954.82,4707,4154.32,4548.56,4144.42,4280Z"/><rect class="cls-11" x="2977.29" y="3195.82" width="523.32" height="305.41" rx="137.6" ry="137.6"/><ellipse class="cls-12" cx="3242.4" cy="3292.12" rx="208.41" ry="82.6"/><path class="cls-13" d="M3405.6,3929.94c21.7-62,88.1-271.71,8.3-311.51-76.2-38-128.1,179.41-145,262.91-10.6-1-21.3-1.6-32.3-1.6s-21.7.6-32.3,1.6c-16.9-83.4-68.8-300.91-145-262.91-80,40-13.4,250,8.3,311.51-50.8,35.5-82.7,86.9-82.7,144,0,107.3,112.7,194.31,251.71,194.31s251.71-87,251.71-194.31C3488.3,4017.14,3456.4,3965.84,3405.6,3929.94Zm-351.71,40,156.3,85.9s-124.3,96.1-156.3-85.2Zm182.71,170c-70,86-116.8-19.1-116.8-19.1,60,73.6,116.8-15.3,116.8-15.3s56.6,88.9,116.8,15.3c0,.8-47.2,106-116.8,20Zm26.3-84.3,156.3-85.9c-31.8,182.21-156.31,86.7-156.31,86.7Z"/><path class="cls-14" d="M2570.48,2794.51c57.1,221.31-13,346.81-345.81,533.72s-242.31,485.21-201.41,518.52c0,0-2.9-231.31,166.41-319.41,0,0-161.2,141.9-128.8,475s198.81,534.52,391.51,552c0,0-109-156.7-86.6-402.41s443.61-244,570-560a615.82,615.82,0,0,0-51.1-562.62Z"/><path class="cls-15" d="M3847.41,2693.3c-8.7,240.51,10,418.61,342.91,605.42s242.31,485.21,201.41,518.52c0,0,2.9-231.31-166.41-319.41,0,0,161.2,141.9,128.8,475s-198.81,534.52-391.51,552c0,0,109-156.7,86.6-402.41s-443.61-244-570-560a615.82,615.82,0,0,1,50.9-562.52Z"/><path class="cls-3" d="M4093.52,3266.62c224,149.2,410,260.91,298.31,550.62,40.9-33.3,131.4-331.71-201.41-518.52s-351.61-364.91-343-605.42h0c11.6-150-27.6-337.41-51.7-434.71l.7-.7-1.2-1.2s31.3,266.81,35,498.71S3869.51,3117.42,4093.52,3266.62Z"/><path class="cls-16" d="M3242.4,3348.42h0a113.8,113.8,0,0,0,113.8-113.8h0V3033.41H3128.49v201.21a113.8,113.8,0,0,0,113.8,113.8Z"/><path class="cls-17" d="M3276.9,3187.72a554.93,554.93,0,0,1-131.5-12.3v66.2a83.65,83.65,0,0,0,167.3,0v-57.5A284,284,0,0,1,3276.9,3187.72Z"/><path class="cls-16" d="M2909.49,2318.89l372.11-52.6,372.11,52.6s15.1,306.61,7.7,472.81c-7.7,170-54.7,383.41-380,383.41s-372.11-213.51-380-383.41C2894.39,2625.4,2909.49,2318.89,2909.49,2318.89Z"/><path class="cls-18" d="M2522.47,2647.8s-135.1-141.1-114.1-312.51,252.91-123.5,252.91-123.5-71.8-176.91,157.6-360.91,1080-132.5,1080-132.5l-176.21,233.81,265.51-68.1s-58.7,240-180.81,362.91c-85,85.8-154.8,129.1-267.31,173.11s-231.61,68.2-350,92.2C2964.49,2558,2752.68,2647.8,2522.47,2647.8Z"/><path class="cls-3" d="M3805.21,2249.19l2.2-2.2c122.1-123.2,180.81-362.91,180.81-362.91-30,120.9-193,372.61-193,372.61Z"/><path class="cls-17" d="M3636.51,2746.91a2548,2548,0,0,1-445,28.5,298.31,298.31,0,0,1-99.2-14.3,126.2,126.2,0,0,1-61.3-45.7c-2.7-4.2-10-24-17.1-39.4-25,7.1-50,13.8-75.2,20.5-15.1,130.8,55.6,282.11,143.6,360,102.7,90,251.71,112,370,49C3562.5,3045.81,3662.31,2889.91,3636.51,2746.91Z"/><circle class="cls-19" cx="3078.69" cy="2842.61" r="64.5"/><circle class="cls-19" cx="3556.4" cy="2834.11" r="64.5"/><path id="_Tracé_" data-name=" Tracé " class="cls-13" d="M3205.89,2792.41c74.3,71.4,189.41,111.8,279.31,103.8,0,0-57.3,108.2-196.21,64.4C3155.49,2918.61,3205.89,2792.41,3205.89,2792.41Z"/><polygon class="cls-20" points="3015.89 2423.2 2522.47 2647.8 2570.48 2794.61 3079.29 2621.9 3015.89 2423.2"/><path class="cls-21" d="M2969,2354.79c0-24.1,122.5-98.1,122.5-98.1l705.12,412.51s-81.8,38.9-154.2,51.5-498.81,42.9-561.12,24.6S2969.29,2398.2,2969,2354.79Z"/><path class="cls-22" d="M3091.59,2256.69c-40,49.1,25.6,386.81,74.6,437.81s623.62,13.6,683.42-33.7-13.4-401.61-48-452S3134.89,2203,3091.59,2256.69Z"/><path class="cls-3" d="M3341.6,2408.6v1.3a44.2,44.2,0,0,0,46,36.6l229.81-12.7a44.2,44.2,0,0,0,41.1-51.8h0a44.2,44.2,0,0,0-45.8-36.5L3383.2,2357a44.2,44.2,0,0,0-41.6,51.6Z"/><path class="cls-3" d="M4090.82,4483.66c134.3-76.7,238.41-254.81,263.31-510.82,14.2-145.9-8.7-255.11-39-331.71,61.6,167.61,44.1,531.72-118.3,731.42A918.6,918.6,0,0,1,4090.82,4483.66Z"/><path class="cls-23" d="M2632.28,2836.31c12.9,186.71-93.1,376.41-258.91,463.31-72,37.7-153.7,57.5-220,105.3a312.41,312.41,0,0,0-126,254,577.92,577.92,0,0,1,344.51-257c-225.11,258.51-298.31,664.72-143.8,970.73a964.93,964.93,0,0,1,3.3-544.22,1354.94,1354.94,0,0,0,117,648.52,633.32,633.32,0,0,1,49-584.42c104.9-162.2,284.11-274.61,354.51-454.41a785.82,785.82,0,0,1-245.11,395.21,1376.73,1376.73,0,0,0,232.41-236.51A1108.73,1108.73,0,0,1,2563.48,3835c158.9-53.2,283.31-188.71,343.91-345.11s60.5-332.11,22.8-495.71A924.32,924.32,0,0,1,2816,3291.52l41.9-317a1515.24,1515.24,0,0,1-448.21,636.32c147.6-234.11,297.91-474.61,354.61-745.52a1995.64,1995.64,0,0,1-163.5,316.31C2644.88,3074.22,2644.08,2951.81,2632.28,2836.31Z"/><path class="cls-24" d="M3571.31,3559.93a278.51,278.51,0,0,0,54,74c98.9,96.3,237.91,136.9,340,230a448.81,448.81,0,0,1,128.1,437.71,775.52,775.52,0,0,0,20-268.51,647.72,647.72,0,0,1-42.8,405.61c176.81-230,178.61-579.12,4.2-811.32a274.31,274.31,0,0,1,157.8,196,633.22,633.22,0,0,0-107.9-261.31,405.41,405.41,0,0,1,134.6,116.6A1236.14,1236.14,0,0,0,3912.42,3184l377.41,294.61c-102.4-122.2-231.61-218.71-339.31-335.21s-196.61-265.21-189.11-423.51a1038,1038,0,0,0,100,712.22,885.92,885.92,0,0,1-147.7-224.61,1079.33,1079.33,0,0,0,280,481.61,812.52,812.52,0,0,1-359.21-363.71,477.61,477.61,0,0,0,92.9,266.91c-43.5-58.8-105.2-111.2-122.6-184s-36.3-147.4-51.7-221.11C3524.6,3303.82,3515.4,3449.93,3571.31,3559.93Z"/><path class="cls-25" d="M2561,2427.2a159.1,159.1,0,0,1,175.11-80L2672,2454.4l111.8-58.1a272.31,272.31,0,0,1-58.2,113.6c-10,11.6-22.4,23-37.7,24.1s-31.6-14.5-25.6-28.6a55,55,0,0,0-39.4,40,64.9,64.9,0,0,1-25.5-55.5,228.41,228.41,0,0,0-37,91.7,287,287,0,0,1-60-228.91,197.11,197.11,0,0,0-25.2,136.3c-12.7-35.4-25.4-71.4-27.7-108.9s7.2-77.5,33.8-104.1c37.8-37.8,97.5-39.4,150.9-38.6a101.9,101.9,0,0,0-91.3,53.7,231.91,231.91,0,0,1,121.5-1.2C2610.58,2313.89,2570.78,2370.89,2561,2427.2Z"/><path class="cls-26" d="M2691.68,2193.59l64.2-82.3a254.2,254.2,0,0,0-24.8,125.8,318.51,318.51,0,0,1,113.4-80.7l-57.1,135.3,146.7-97.7a470,470,0,0,1-86.7,158.2c75.2-93.5,195.21-140,313.31-160.5s239.21-20.5,357.31-41.8,237.81-68.3,312.11-162.4l-435,146.1a2271.87,2271.87,0,0,0,375.41-337.81l-289.41,154.7a847.63,847.63,0,0,1,252.11-164.8,1014.13,1014.13,0,0,0-834.72,214.21,702.22,702.22,0,0,1,232.61-205.61c-41.1,22.4-113.5,19.5-160,37.2a727.12,727.12,0,0,0-157.5,88.4C2723.78,1981.78,2672.38,2081.49,2691.68,2193.59Z"/><path class="cls-27" d="M2939.69,1875.68a296.61,296.61,0,0,0-188.41,190C2827.38,2003.48,2875.88,1949.88,2939.69,1875.68Z"/><path class="cls-27" d="M3463.7,1824.38a1308.25,1308.25,0,0,0-285.41,166.3l371.21-64.1a1439,1439,0,0,1-556.72,213.91l111.8-144.2c0,20-203.51,120.6-225.21,114.1C3014.09,1941.78,3253.1,1841.28,3463.7,1824.38Z"/><path class="cls-27" d="M2277.37,3648.33a1635.05,1635.05,0,0,1,273.21-420.81C2464.47,3359.92,2378.77,3526.93,2277.37,3648.33Z"/><path class="cls-27" d="M4093.52,3567a1057.93,1057.93,0,0,1-280-509.31C3921,3227.22,3996.82,3391.42,4093.52,3567Z"/><path class="cls-27" d="M3627.41,3537.23c37.1,70.8,104,121.2,172.71,162.1s141.9,75.4,203.61,126.3,112.1,122.7,114.2,202.71c-4.1-165.4-107.9-320-264-374.91-40-13.9-81.2-21.7-120-36.6S3648.11,3573.73,3627.41,3537.23Z"/><path class="cls-27" d="M2372.87,3759.94A1498.54,1498.54,0,0,0,2748.68,3271c-6.1,105.6-52.5,212.51-118.8,295S2474.77,3731.73,2372.87,3759.94Z"/><path class="cls-5" d="M2661.18,2211.79s-71.8-176.91,157.6-360.91,1080-132.5,1080-132.5-746.42-20-983.33,106S2654.78,2089.89,2661.18,2211.79ZM2435,2298.89c50-116.3,226.21-87.1,226.21-87.1s-231.61-47.9-252.91,123.5,114.1,312.51,114.1,312.51S2384.57,2415.3,2435,2299Z"/><path class="cls-5" d="M2570.48,2794.51s162.7,274.81-197.51,467.71c-240,128.7-455.71,304.81-350,584.52-40.9-33.3-131.4-331.71,201.41-518.52S2627.38,3015.81,2570.48,2794.51ZM2317.37,4509.16c-40-36.9-114.6-118.3-180.61-264-96.5-212.81-63.7-484.71-63.7-484.71l-12.4,76.8a831.14,831.14,0,0,0,0,165.1C2085.36,4253.85,2186.26,4430,2317.37,4509.16Z"/><path class="cls-7" d="M3234.4,5017.77C1805.05,5017.77,496.31,4773-515.71,4367V5957.8H6984.5V4367C5972.48,4773,4663.74,5017.77,3234.4,5017.77Z"/><path class="cls-28" d="M6201.58,5404.88l73.8,73.8a49.4,49.4,0,0,0,44.1,14q326.91-103.6,648.12-230c12.4-4.9,10.8-17.6-3.6-28.4l-90.6-67.9c-14.4-10.8-35.8-15.7-47.7-11q-308.81,121.4-623.42,221.11C6190.28,5380,6189.88,5393.08,6201.58,5404.88Z"/><path class="cls-28" d="M5921.57,5316.38l70,75a47,47,0,0,0,42.1,15.1q390-116.6,771.42-266.61c11.9-4.7,10-17.2-4.6-28l-90.6-67.9c-14.4-10.8-35.3-15.9-46.7-11.4q-366.11,144-740.72,255.91C5910.87,5292,5910.47,5304.48,5921.57,5316.38Z"/><path class="cls-28" d="M5488.86,5266l61.6,77.3a42.8,42.8,0,0,0,38.8,16.8A9287.16,9287.16,0,0,0,6642.6,5016.87c11.3-4.4,8.8-16.8-5.6-27.6l-90.6-67.9c-14.4-10.8-34.9-16.1-45.7-11.8a8899.37,8899.37,0,0,1-1009.43,328.81C5480.26,5241.38,5479.06,5253.68,5488.86,5266Z"/><path class="cls-28" d="M5802,5005l73.8,73.8c11.7,11.8,30,18.5,41.1,15q284.11-90,563.22-200c10.8-4.2,7.8-16.5-6.6-27.2l-90.6-67.9c-14.4-10.8-34.4-16.2-44.7-12.2q-266.71,104.9-538.52,191C5789.27,4981.07,5790.27,4993.17,5802,5005Z"/><path class="cls-28" d="M6076.88,5615.59l67.6,75.7a47.3,47.3,0,0,0,43.5,14.9q214.81-62,427.51-133.2c13.1-4.4,13.6-17.3,1.1-28.8l-78.6-72.3a52.1,52.1,0,0,0-45.5-13.1q-204.91,68.6-411.91,128.3C6067.48,5590.79,6066.18,5603.49,6076.88,5615.59Z"/><path class="cls-28" d="M5566.26,5747.49l55.4,78.8a42.2,42.2,0,0,0,40,17.1q217-50.7,432.21-110.7c13.3-3.7,15.5-16.5,4.9-28.6l-66.6-76a46.6,46.6,0,0,0-42.3-15.4q-207.31,57.8-416.41,106.6C5560.76,5722.39,5557.46,5735,5566.26,5747.49Z"/><path class="cls-28" d="M5051,5852.9l43.1,81.4a37.4,37.4,0,0,0,36.9,19q218.71-39.5,436.11-88.2c13.4-3,17.3-15.7,8.6-28.2l-54.4-79.1a41.4,41.4,0,0,0-39-17.5q-209.41,46.9-420,85C5049.25,5827.6,5044.25,5840,5051,5852.9Z"/><path class="cls-28" d="M4532.23,5931.8l30.7,83.2a33.1,33.1,0,0,0,33.4,20.8q220-28.2,439-65.7a17.7,17.7,0,0,0,12.4-27.7l-42.1-81.5a36.7,36.7,0,0,0-35.7-19.4q-211,36.1-423,63.3a18.8,18.8,0,0,0-14.7,27Z"/><path class="cls-28" d="M4010.92,5984l18.3,84.5a29.3,29.3,0,0,0,30,22.5q220.91-17,441.21-43.2a19.2,19.2,0,0,0,16.1-27l-30-83.4a32.4,32.4,0,0,0-32.2-21.2q-212.21,25.3-425.11,41.6a20.7,20.7,0,0,0-18.3,26.2Z"/><path class="cls-28" d="M5711.07,5545.29l61.6,77.3a44,44,0,0,0,40.8,16.3q206.91-54,412-116.8c12.7-3.9,13.6-16.6,2-28.4l-72.6-74.2a48.6,48.6,0,0,0-42.9-14.6q-197.2,60-396.31,112.4C5703.37,5520,5701.37,5533,5711.07,5545.29Z"/><path class="cls-29" d="M5451.56,5442.69l57.7,78.3a41.8,41.8,0,0,0,38.8,17.2q198.5-48.4,395.31-105.2c12.2-3.5,13.1-16.1,2.2-28.1l-68.8-74.9a46.3,46.3,0,0,0-40.9-15.6q-189,54.6-380,101C5444.56,5417.88,5442.46,5430,5451.56,5442.69Z"/><path class="cls-28" d="M5247.45,5159.08l57.8,78.3a40.7,40.7,0,0,0,36.8,17.6q248.11-60.6,493.31-135.7c11-3.4,10.6-15.7-1-27.5l-72.6-74.2c-11.6-11.8-29.4-18.7-40-15.5q-234.41,71.8-471.71,130C5239.25,5134.38,5238.15,5146.58,5247.45,5159.08Z"/><path class="cls-28" d="M4692.34,5273.78l41.8,81.6a34.5,34.5,0,0,0,32.4,20q250.71-43.8,499.31-102.1c11.2-2.6,12.9-14.9,3.8-27.4l-56.8-78.5c-9.1-12.5-25-20.6-35.6-18.1q-237.61,55.8-477.41,97.7C4689,5248.78,4685.64,5260.78,4692.34,5273.78Z"/><path class="cls-28" d="M1208.54,5124.18q-229.31-56.9-455.91-126.8c-10-3.2-28.4,3.7-40,15.4l-73.1,74.1c-11.6,11.8-12.2,24.1-1.1,27.5q237,73.1,476.81,132.6a41,41,0,0,0,37-17.5l58.7-78.1C1220.14,5139.08,1219.14,5126.88,1208.54,5124.18Z"/><path class="cls-28" d="M1764.85,5242.58q-240-42.6-477.21-99.1c-10.6-2.5-26.7,5.5-35.8,17.9l-57.5,78.6c-9.2,12.5-7.6,24.7,3.6,27.4q248.31,59.1,499.11,103.6a34.8,34.8,0,0,0,32.6-20l42.5-81.5C1778.85,5256.48,1775.65,5244.48,1764.85,5242.58Z"/><path class="cls-28" d="M2319.77,5322.28q-241.41-26.6-481.41-67a34.2,34.2,0,0,0-31.4,20l-41.5,81.6c-6.6,13-2.8,25.1,8.4,27q250.91,42.3,503.42,70a30,30,0,0,0,28.1-21.9l26.3-83.7C2336,5335.28,2330.57,5323.48,2319.77,5322.28Z"/><path class="cls-29" d="M2364.57,5352l-25.4,83.8c-4.1,13.3,1.9,25.1,13.2,26.3a8844,8844,0,0,0,2337.27-73.7c11.3-1.9,15.1-14,8.6-26.9l-40.8-81.5a34,34,0,0,0-31.2-20,8456.35,8456.35,0,0,1-2234.77,70A29,29,0,0,0,2364.57,5352Z"/><path class="cls-29" d="M5220.15,5658.79l49.3,80a39.1,39.1,0,0,0,37.5,18.3q208.81-43.2,416.11-95.3c12.8-3.2,15.4-15.9,5.7-28.2l-60-77.6a43.3,43.3,0,0,0-40-16.7q-199.41,50-400,91.6C5216.05,5633.69,5212.35,5646.09,5220.15,5658.79Z"/><path class="cls-28" d="M4725.34,5747l37,82.4a34.6,34.6,0,0,0,34.1,20q210-32.4,419.41-73.7c12.9-2.5,17.2-15,9.5-27.8l-48.2-80a38.4,38.4,0,0,0-36.4-18.7q-201.11,40-403.41,70.9C4724.84,5721.69,4719.54,5733.89,4725.34,5747Z"/><path class="cls-28" d="M4227.42,5810l24.5,83.9a30.5,30.5,0,0,0,30.7,21.8q211.31-21.7,421.81-52.2a18.1,18.1,0,0,0,13-27.5l-35.9-82.5a33.9,33.9,0,0,0-32.9-20q-202.41,29.3-405.71,50a19.3,19.3,0,0,0-15.5,26.5Z"/><path class="cls-28" d="M3727.41,5846.9l12.1,84.9a27,27,0,0,0,27.2,23.2q211.91-10.9,423.41-30.6a20,20,0,0,0,17.3-26.4l-23.4-84a30,30,0,0,0-29.5-22.1q-203.41,19-407.31,29.5a21.3,21.3,0,0,0-19.8,25.5Z"/><path class="cls-28" d="M3227.39,5858.8V5944c0,13.5,19,12.2,23.6,24.5,197.41,536.22,341.91,562.42,424.21-9.1,1.9-13,22.3-12,20.5-25.5l-11-84.9a26.4,26.4,0,0,0-25.9-23.5q-203.91,8.6-408,8.7a23.9,23.9,0,0,0-23.41,24.39Z"/><path class="cls-28" d="M2726.58,5845.2l-12.9,84.8a21.5,21.5,0,0,0,20,25.6q211.91,10.7,424.11,12.5a24.4,24.4,0,0,0,24.1-24.3l1.5-85.2a23.4,23.4,0,0,0-22-24.68l-.36,0q-204-1.7-408-12A26.9,26.9,0,0,0,2726.58,5845.2Z"/><path class="cls-28" d="M2227.37,5806.1l-25.8,83.9a19.4,19.4,0,0,0,16.3,26.6q211.31,21.4,423.21,34a27.5,27.5,0,0,0,27.7-23l14-84.8a21,21,0,0,0-18.7-25.7q-203.81-12.1-407.11-32.7A30,30,0,0,0,2227.37,5806.1Z"/><path class="cls-28" d="M1729.45,5741.69l-37.8,82.2a17.9,17.9,0,0,0,12.6,27.3q210,32.2,421.51,55.6a31.1,31.1,0,0,0,31.2-21.5l26.5-83.7a19.1,19.1,0,0,0-15.1-26.6q-203.11-22.5-405.41-53.4A34.5,34.5,0,0,0,1729.45,5741.69Z"/><path class="cls-29" d="M1234.84,5651.79l-50,80c-8,12.7-4,25.2,8.9,27.9q208.81,43,418.91,77.1a35.2,35.2,0,0,0,34.7-20l38.9-82.1c6.2-13.1,1.1-25.2-11.4-27.3q-202-32.8-402.91-74.2A39.1,39.1,0,0,0,1234.84,5651.79Z"/><path class="cls-28" d="M5042.15,5369.38l49.3,80a37.8,37.8,0,0,0,35.5,18.7q190.6-39.4,380-87c11.7-2.9,13.3-15.3,3.7-27.7l-60-77.6a42.1,42.1,0,0,0-37.7-17.2q-181.31,45.5-363.91,83.3C5037.45,5344.38,5034.35,5356.58,5042.15,5369.38Z"/><path class="cls-28" d="M4591.94,5450l37,82.4a33.4,33.4,0,0,0,32.1,20q191.91-30,382.81-67.3c11.8-2.3,15.1-14.6,7.4-27.4l-48.2-80a37.2,37.2,0,0,0-34.3-19.1q-182.9,36.1-366.81,64.5C4590.53,5424.48,4586,5436.48,4591.94,5450Z"/><path class="cls-28" d="M4139,5506.59l24.5,83.9a29.4,29.4,0,0,0,28.6,22q192.9-20,385-47.6c11.9-1.7,16.9-13.8,11.1-26.9l-35.9-82.5a32.8,32.8,0,0,0-30.9-20.8q-184,26.7-368.81,45.3C4141.22,5481.49,4135.12,5493.29,4139,5506.59Z"/><path class="cls-28" d="M3684.31,5540.49l12.1,84.9a26,26,0,0,0,25.1,23.4q193.41-10,386.41-28a19,19,0,0,0,14.8-26.2l-23.4-84a28.8,28.8,0,0,0-27.4-22.3q-184.91,17.3-370,26.8a20.6,20.6,0,0,0-17.6,25.4Z"/><path class="cls-28" d="M3228.8,5551.29q0,42.6,0,85.2a23.1,23.1,0,0,0,21.5,24.5q193.61,0,387.11-8.3a21,21,0,0,0,18.5-25.4l-11-84.9a25.5,25.5,0,0,0-23.9-23.6q-185.41,7.8-371,7.9A23,23,0,0,0,3228.8,5551.29Z"/><path class="cls-28" d="M2773.28,5538.89l-12.9,84.8a20.7,20.7,0,0,0,17.9,25.5q193.41,10,387.11,11.4a23.5,23.5,0,0,0,22.1-24.4l1.5-85.2a22.6,22.6,0,0,0-20-24.7q-185.51-1.6-370.91-10.9A26,26,0,0,0,2773.28,5538.89Z"/><path class="cls-28" d="M2318.67,5503.39l-25.4,83.8a18.8,18.8,0,0,0,14.2,26.4q192.91,20,386.31,31a26.5,26.5,0,0,0,25.6-23.1l14-84.8a20,20,0,0,0-16.7-25.6q-185.31-11-370-30A29.4,29.4,0,0,0,2318.67,5503.39Z"/><path class="cls-28" d="M1866,5444.78l-37.8,82.2c-6,13.1-1.3,25.2,10.6,27q191.91,29.4,384.71,50.7a30,30,0,0,0,29.2-21.8l26.5-83.7c4.2-13.3-1.6-25.1-13-26.4q-184.7-20-368.61-48.6A33.4,33.4,0,0,0,1866,5444.78Z"/><path class="cls-28" d="M1415.94,5363l-50,80c-8,12.7-4.9,25,6.8,27.4q190.61,39.2,382.31,70a34,34,0,0,0,32.6-20l38.9-82.1c6.2-13.1,2-25.1-9.3-26.9q-183.71-30-366.41-67.4A37.9,37.9,0,0,0,1415.94,5363Z"/><path class="cls-29" d="M744.22,5536.39l-62.4,77.1c-10,12.3-7.6,24.9,5.1,28.2q206.91,53.7,415.51,98.7a40,40,0,0,0,38.1-18l51.2-80c8.1-12.7,4.7-25.1-7.7-27.8q-200.61-43.2-400-94.9A44.1,44.1,0,0,0,744.22,5536.39Z"/><path class="cls-28" d="M969.53,5258l-62.2,77.1c-10,12.3-8.5,24.7,3.1,27.7q188.91,49.1,379.21,90a38.6,38.6,0,0,0,36-18.4l51.2-80c8.1-12.7,5.6-24.9-5.6-27.3q-182.41-39.3-363.41-86.3A42.9,42.9,0,0,0,969.53,5258Z"/><path class="cls-28" d="M106.2,4798.87l-90.6,67.9c-14.4,10.8-17.4,23-6.6,27.2q273.71,107.6,552.42,196.31c11,3.5,29.4-3.2,41.2-14.9l74.1-73.7c11.8-11.7,12.8-23.9,2.3-27.3q-266.31-84.8-528.12-187.71C140.7,4782.67,120.7,4788.07,106.2,4798.87Z"/><path class="cls-28" d="M258.51,5395.68l-74.5,73.6c-11.9,11.7-11.2,24.4,1.4,28.4q204.61,64.5,411.21,120a44.8,44.8,0,0,0,41.4-15.9l63.5-76.8c10-12.2,8.3-24.8-3.9-28.1q-198.71-53.6-395.61-115.6A50,50,0,0,0,258.51,5395.68Z"/><path class="cls-29" d="M-57.2,4921.47l-90.6,67.9c-14.4,10.8-16.9,23.2-5.6,27.6a9286.77,9286.77,0,0,0,981.23,324,43.6,43.6,0,0,0,39.3-16.5l63.5-76.8c10-12.2,9.2-24.5-1.9-27.5a8899.37,8899.37,0,0,1-940-310.51C-22.7,4905.37-42.7,4910.67-57.2,4921.47Z"/><path class="cls-28" d="M-384.21,5166.58l-90.6,67.9c-14.4,10.8-16.1,23.5-3.6,28.4q284.91,112,574.62,206.31a50,50,0,0,0,44.6-13.7l75.6-73.3c12-11.7,11.9-24.3,0-28.2q-278.51-90.6-552.72-198.41C-348.41,5150.88-369.81,5155.78-384.21,5166.58Z"/><path class="cls-28" d="M2442.07,5981.2l-19.2,84.4a20.8,20.8,0,0,0,19.2,26.2q220.91,16.7,442.31,24.3a26.4,26.4,0,0,0,27-23.7l7.8-85a22.6,22.6,0,0,0-19.72-25.15q-.94-.11-1.88-.15-213.21-7.2-426.11-23.4A29.2,29.2,0,0,0,2442.07,5981.2Z"/><path class="cls-28" d="M1920.86,5927.1l-31.6,82.9a18.9,18.9,0,0,0,15.5,27.1q220,28,440.91,46.7a30,30,0,0,0,30.5-22.2l20-84.3a20,20,0,0,0-17.9-26.3q-212.71-18.1-424.81-45A33,33,0,0,0,1920.86,5927.1Z"/><path class="cls-28" d="M1402.24,5846.5l-44,81.2a17.5,17.5,0,0,0,11.8,27.8q218.71,39.2,438.61,69.2a33.8,33.8,0,0,0,34-20.6l32.7-83a18.6,18.6,0,0,0-14.3-27.1q-211.81-28.9-422.61-66.7A37.4,37.4,0,0,0,1402.24,5846.5Z"/><path class="cls-28" d="M887.33,5739.19,831,5817.8c-9,12.5-5.4,25.2,8,28.3q217,50,435.51,91.7a38.2,38.2,0,0,0,37.4-18.7l45.1-81c7.2-12.9,2.4-25.3-10.5-27.7q-210-40-420-88.4A42.2,42.2,0,0,0,887.33,5739.19Z"/><path class="cls-28" d="M377.31,5605.39l-68.5,75.4c-10.9,12-9,24.8,4.3,28.7q214.81,61.7,431.51,114.2a43,43,0,0,0,40.7-16.7l57.4-78.4c9.1-12.5,6.1-25.1-6.8-28.2q-208.61-50.4-416-110.4A47.4,47.4,0,0,0,377.31,5605.39Z"/><path class="cls-28" d="M-547.72,5289.08l-90.6,67.9c-14.4,10.8-15.6,23.7-2.7,28.8q425,167.11,860,296.31a48.2,48.2,0,0,0,44-14.5l70-75.1c11-12,10-24.7-3.1-28.5Q-89.1,5440-499,5278.48A57.9,57.9,0,0,0-547.72,5289.08Z"/><path class="cls-28" d="M-220.71,5044l-90.6,67.9c-14.4,10.8-16.5,23.4-4.6,28q408.31,160.5,826.62,282.91a46.4,46.4,0,0,0,41.7-15.3l68.6-75.4c10.9-12,10-24.5-1.4-27.9q-401.21-117.5-793.72-271.61C-185.41,5028.07-206.31,5033.17-220.71,5044Z"/><path class="cls-28" d="M4977.45,5544.29l45.3,81a36.9,36.9,0,0,0,35.4,19.1q200-38,399-84.4c12.3-2.9,14.9-15.4,5.9-27.8l-56.5-78.6A41,41,0,0,0,5369,5436q-191.51,44-383.41,80.9C4973.75,5519.19,4969.95,5531.39,4977.45,5544.29Z"/><path class="cls-29" d="M4499.13,5621.09l32.8,83a32.5,32.5,0,0,0,32,20.8q201.41-27.6,401.91-63.6c12.4-2.2,16.7-14.5,10-27.4l-44.1-81.2a36.2,36.2,0,0,0-34.2-19.5q-192.51,34.6-385.91,61.1C4499.43,5595.89,4493.93,5607.89,4499.13,5621.09Z"/><path class="cls-28" d="M4018.62,5673.19l20,84.3a28.7,28.7,0,0,0,28.8,22.5q202.31-17.2,404-42.8a18.3,18.3,0,0,0,13.4-26.8l-31.6-83.1a31.9,31.9,0,0,0-30.7-21.2q-193.6,24.6-387.91,41.1a20,20,0,0,0-16,26Z"/><path class="cls-28" d="M3536.6,5700.49l7.6,85a25.4,25.4,0,0,0,24.9,23.8q202.81-6.8,405.31-22a20,20,0,0,0,17.1-26l-19-84.4a28.1,28.1,0,0,0-27.2-22.7q-194.41,14.6-389.11,21.1a21.8,21.8,0,0,0-19.8,23.64Q3536.48,5699.71,3536.6,5700.49Z"/><path class="cls-28" d="M3054,5703.09l-5,85.1a22.5,22.5,0,0,0,19.94,24.8q.63.07,1.26.1,202.91,3.6,405.71-1.2a22.3,22.3,0,0,0,20.94-23.58q0-.76-.14-1.52l-6.4-85.1a24.8,24.8,0,0,0-23.6-24q-194.81,4.6-390,1.1A24.4,24.4,0,0,0,3054,5703.09Z"/><path class="cls-28" d="M2571.68,5681l-17.6,84.5a20,20,0,0,0,17.6,25.9q202.51,14,405.41,20a25,25,0,0,0,24.4-23.9l6.2-85.1a22.1,22.1,0,0,0-18.8-25q-.6-.08-1.2-.14-194.71-5.4-389.21-18.8A27.6,27.6,0,0,0,2571.68,5681Z"/><path class="cls-28" d="M2090.86,5634.09l-30,83.3a18.4,18.4,0,0,0,13.9,26.7q201.81,24.4,404.21,40a28.3,28.3,0,0,0,28-22.6l18.8-84.4a20,20,0,0,0-16.3-26q-194.31-15.3-388.11-38.8A31.4,31.4,0,0,0,2090.86,5634.09Z"/><path class="cls-28" d="M1612.25,5562.49l-42.7,81.4c-6.8,12.9-2.3,25.2,10,27.4q200.61,34.8,402.21,61.2a32.1,32.1,0,0,0,31.6-21l31.4-83.2c5-13.2-.7-25.2-12.6-26.8q-193.51-25.3-386.21-58.8A35.7,35.7,0,0,0,1612.25,5562.49Z"/><path class="cls-28" d="M1137.33,5466.09l-55.1,78.9c-8.8,12.5-5.9,25,6.4,27.8q199,45.2,399.41,82a36.4,36.4,0,0,0,35-19.3l43.9-81.2c7-12.9,3-25.1-8.9-27.3q-192.41-35.3-383.51-78.7A40,40,0,0,0,1137.33,5466.09Z"/><path class="cls-28" d="M665.92,5345l-67.4,75.8c-10.7,12-10,24.6,2.6,28.1q197.11,55.6,395.81,102.8a41.2,41.2,0,0,0,38.4-17.4l56.3-78.6c8.9-12.5,6.6-24.9-5.1-27.7q-190.81-45.3-380-98.7A45.7,45.7,0,0,0,665.92,5345Z"/><path class="cls-30" d="M4988.15,5403.38l8-231.21-10.5-81s-75.5,172.6-140,225.41c-38.5,31.6-151.6,59.3-236.21,76.5a111.6,111.6,0,0,1-129.2-77.6h0a111.7,111.7,0,0,1,58.4-132.4l120.9-58.5s231.61-365.11,291.81-443.21,353-200.71,625.12-185.11,404.61,169,476.21,221.41c30,21.6,67.2,48.9,101.2,73.5a116.9,116.9,0,0,1,30,157.6h0a116.9,116.9,0,0,1-156,39.1l-201.41-113.5s-251.21,187.81-568.42,221.71a2588.78,2588.78,0,0,1,21,313.51,145.4,145.4,0,0,1-162.4,143.4h0A145.5,145.5,0,0,1,4988.15,5403.38Z"/><path class="cls-30" d="M5828.37,4740l77.2,116.3a307.11,307.11,0,0,1,50,193.41l-6.1,80a146.4,146.4,0,0,1-135.7,134.8h0a146.4,146.4,0,0,1-144.4-87.4L5548.46,4900Z"/><path class="cls-30" d="M5344.26,5060l142.4,324.41a156.9,156.9,0,0,0,205,81.4h0A156.9,156.9,0,0,0,5774.79,5260l-.72-1.67L5632,4933.87a156.9,156.9,0,0,0-203.51-82.1h0a156.9,156.9,0,0,0-85.7,204.68Q5343.49,5058.22,5344.26,5060Z"/><path class="cls-31" d="M5013.35,5311.78c-1.3,45.4-2.5,92,12.7,134.7s50.8,81.4,95.9,86.5c53.4,6.1,102.5-37.2,121.6-87.5s15.1-106,10.8-160l-10-131.6c-5.9-75.1-35.2-152.8-122.9-154.4-79.1-1.5-100,62.7-102.4,129.1Q5016,5220,5013.35,5311.78Z"/><path class="cls-31" d="M5379.86,5021.37c-2.5,47.6,19.2,92.8,40,135.6l78.5,158.5a350,350,0,0,0,50,81.9,118.1,118.1,0,0,0,83.8,42.2c55.1,0,98.7-53.2,106.4-107.8s-11.4-109.1-31.7-160q-38.7-97.8-84.7-192.51c-27-55.7-72.5-100.7-140-85C5432.06,4905.57,5382.56,4971.27,5379.86,5021.37Z"/><path class="cls-31" d="M5671.87,4873.87c-5.2,46.3,12,91.8,28.8,135.2l55.2,142.5a225,225,0,0,0,37.9,71c18,20,45.9,33.6,72.1,27.1a75.4,75.4,0,0,0,48-44.9,211.61,211.61,0,0,0,13.4-66.4c6.3-71.9,9.4-145.8-12.2-214.61-18.6-59.1-62.8-123.8-124.1-144.9C5732.37,4758.66,5678.07,4818.57,5671.87,4873.87Z"/><path class="cls-31" d="M5900.37,4784.57a176.1,176.1,0,0,0,30,76.6,254.91,254.91,0,0,0,75.5,81.7,136.9,136.9,0,0,0,107,20c36.1-10,67.2-40.9,70.7-78.1a107.1,107.1,0,0,0-28.2-77.2,318,318,0,0,0-65-53.5,364.41,364.41,0,0,0-78.2-44.5C5950.77,4687.76,5894.17,4712.16,5900.37,4784.57Z"/><path class="cls-32" d="M5938.37,4759a100.81,100.81,0,0,0,22.2,62.1,280,280,0,0,0,47.1,45.7,271.1,271.1,0,0,0,58,40,84.3,84.3,0,0,0,66.8,4.4,56.9,56.9,0,0,0,34.7-56.5,87.7,87.7,0,0,0-26.9-47.8C6107.48,4771.77,5941.87,4641.16,5938.37,4759Z"/><path class="cls-32" d="M5748.47,4948.27a277.79,277.79,0,0,0,5.9,78.9l18,104.7a197.8,197.8,0,0,0,17.1,60,66.9,66.9,0,0,0,48,37,64.9,64.9,0,0,0,57.5-28.4,150.8,150.8,0,0,0,23.5-62.4,471.41,471.41,0,0,0,5.4-138.9c-3.9-35.2-12.5-71.4-35.6-98.2C5835.77,4840.67,5757.47,4874.37,5748.47,4948.27Z"/><path class="cls-32" d="M5459.26,5158.88c.6,37.9,20,72.6,38.4,105.5l53.2,93.8c14.1,24.9,30,51.5,56.5,62.4,31.2,12.9,69.3-1.5,90-28.3a131.21,131.21,0,0,0,22-96.3,390,390,0,0,0-30-96.6c-14.9-36.9-30-74.8-57.8-103.7C5569.26,5029.47,5457.46,5057.87,5459.26,5158.88Z"/><path class="cls-32" d="M5043.75,5180c-13.5,24.3-13.4,53.6-12.9,81.4l2.2,125c.7,41.7,3.7,88.6,34.9,116.4s78.1,24.7,111.3,2.4,52.4-61,60-100,4.3-80,1.3-119.4-6.7-79.3-28.7-111.3C5177.45,5125.18,5074,5126,5043.75,5180Z"/><path class="cls-31" d="M4579.93,5194.28a234.7,234.7,0,0,0-52.8,39.4,64.4,64.4,0,0,0-16.6,60.9c11.7,34.9,57.4,42.8,94.1,40a410,410,0,0,0,245.81-110.5c43.7-41.5,79.1-96.8,79-157a132,132,0,0,0-53.1-104.9c-44.5-31.4-70-4-95.7,33.7A686.62,686.62,0,0,1,4579.93,5194.28Z"/><path class="cls-32" d="M4561,5240c-14,10-29.2,22.7-28.4,40a34.4,34.4,0,0,0,24,28.5,82.9,82.9,0,0,0,39.1,1.7,307.61,307.61,0,0,0,148.5-63.8c16.9-13.5,33.8-32.6,30-54C4757.44,5092.27,4589.63,5220,4561,5240Z"/><path class="cls-30" d="M1448.34,5433.78l13.9-231,18.1-80s58.8,179,117.9,237.61c35.4,35.1,145.3,73.4,227.91,98.5a111.6,111.6,0,0,0,136-65h0a111.7,111.7,0,0,0-45.6-137.3l-114.9-70S1605.55,4801.27,1553,4717.76s-332.51-233.11-604.82-243.41-418.71,130-495,175.41c-31.5,18.7-71.5,42.4-107.7,63.6a116.9,116.9,0,0,0-44.8,154h0a116.9,116.9,0,0,0,151.6,53.6l211.51-93.9s232.31,210.71,544.92,274.41a2588.62,2588.62,0,0,0-50.5,310,145.4,145.4,0,0,0,148.1,158.1h0A145.5,145.5,0,0,0,1448.34,5433.78Z"/><path class="cls-30" d="M674.52,4694.16l-87.8,108.5a307,307,0,0,0-68.4,187.81l-1.4,80a146.4,146.4,0,0,0,122.4,147h0a146.4,146.4,0,0,0,152-73.3L938,4880Z"/><path class="cls-30" d="M1126.33,5058.17l-172.4,309.41a156.91,156.91,0,0,1-211.71,61.6h0a156.9,156.9,0,0,1-63.41-212.64l.91-1.66,172.21-310a156.9,156.9,0,0,1,210-62.5h0A156.9,156.9,0,0,1,1128.58,5054Q1127.49,5056.11,1126.33,5058.17Z"/><path class="cls-31" d="M1431.94,5340c-3,45.3-6.2,91.8-25.4,132.9s-58.3,76.2-103.6,77.1c-53.8,1-98.6-46.7-112.8-98.6s-5-106.9,4.3-160l22.8-130c13-74.2,49.5-148.8,137-142.1,78.9,6,94,72,90,138.2Q1437.84,5249,1431.94,5340Z"/><path class="cls-31" d="M1094.43,5016.47c-2,47.7-27.9,90.6-53,131.1l-93.1,150a350,350,0,0,1-58,76.8,118.1,118.1,0,0,1-87.4,34.1c-54.9-4.9-93.2-62.3-95.8-117.4s21.6-107.5,46.7-156.6q47.8-93.7,102.5-183.61c32.2-52.9,81.7-93.4,147.7-71.3C1053.43,4896.27,1096.53,4966.37,1094.43,5016.47Z"/><path class="cls-31" d="M817.32,4842.07c.8,46.6-20.6,90-41.4,131.9l-68.6,136.6a224.9,224.9,0,0,1-44.4,67.1c-20,18.3-48.9,29.1-74.3,20a75.4,75.4,0,0,1-43.5-49.3,211.6,211.6,0,0,1-7-67.4c.6-72.1,4.4-146,32.5-212.51,24.1-57.1,74.2-117.3,137.2-132.5C768.32,4721.66,816.82,4786.37,817.32,4842.07Z"/><path class="cls-31" d="M598.72,4731.56a176.11,176.11,0,0,1-36.8,73.4,254.91,254.91,0,0,1-82.9,74.2,136.9,136.9,0,0,1-108.4,10c-35.1-12.9-63-47-63-84.4a107.1,107.1,0,0,1,35.4-74.1,318,318,0,0,1,70-47.1,364.42,364.42,0,0,1,82-36.9C557.32,4630,611.62,4660,598.72,4731.56Z"/><path class="cls-32" d="M563.22,4702.46a100.8,100.8,0,0,1-28,60,280.53,280.53,0,0,1-51.3,41,271.11,271.11,0,0,1-61.5,34.4,84.3,84.3,0,0,1-66.9-1.9,56.8,56.8,0,0,1-29.2-60,87.7,87.7,0,0,1,31.3-45.1C393.91,4699.26,570.92,4584.86,563.22,4702.46Z"/><path class="cls-32" d="M734.42,4908.87a277.81,277.81,0,0,1-13.3,78l-27.8,102.5a197.8,197.8,0,0,1-22.8,58.5,66.9,66.9,0,0,1-51.2,32.1,64.9,64.9,0,0,1-54.5-33.7,150.8,150.8,0,0,1-17.5-64.3,471.41,471.41,0,0,1,7.8-138.8c7.2-34.6,19.2-70,44.7-94.4C657.32,4793.57,732.82,4834.47,734.42,4908.87Z"/><path class="cls-32" d="M1002.43,5145.88c-4.1,37.6-26.5,70-48.2,101.4l-61.8,88.3c-16.4,23.5-34.8,48.4-62.2,56.8-32.3,10-68.8-8.1-86.9-36.6a131.2,131.2,0,0,1-12.8-98,390,390,0,0,1,38.5-93.4c18.3-35.4,37.3-71.6,67.3-97.8C905.23,5006.67,1013.53,5045.47,1002.43,5145.88Z"/><path class="cls-32" d="M1414,5206.58c11.2,25.5,8.3,54.6,5.2,82.3l-14,124.2c-4.7,41.5-12.1,87.9-45.8,112.5s-80,17.2-111-8.2-46.4-65.6-50-105.4,3.2-80,10-119,14.1-78.4,39.1-108.1C1286.14,5139,1389,5149.48,1414,5206.58Z"/><path class="cls-31" d="M1874.46,5264.18a234.82,234.82,0,0,1,48.8,44.2,64.4,64.4,0,0,1,10.7,62.2c-15,33.6-61.2,37.1-97.4,30.6a410,410,0,0,1-234.31-133.3c-40-45.5-70-103.8-63.8-163.8a132,132,0,0,1,62.8-99.4c47.3-27,70,2.6,92.1,42.6A686.62,686.62,0,0,0,1874.46,5264.18Z"/><path class="cls-32" d="M1889.06,5311.38c13,11,26.9,25.4,24.5,42.2a34.4,34.4,0,0,1-26.2,26.4,82.9,82.9,0,0,1-39.1-2,307.61,307.61,0,0,1-142.2-78c-15.6-15.1-30.6-35.7-25-56.6C1707.35,5145.88,1862.45,5288.78,1889.06,5311.38Z"/><path class="cls-33" d="M608.42,3689s-162.3-176-392.91-236.81l-8.2-2.3,133.3-560-73.3-23L158.2,3438.83c-271-55.6-452.41,19-452.41,19a1095.13,1095.13,0,0,0,94.3,63.8l-123.7,1020L105.1,4694l353.31-981.43A756.32,756.32,0,0,0,608.42,3689Z"/><path class="cls-3" d="M9987.59,3063.91,6742.2,3897.84a122.9,122.9,0,0,1-149.88-88l-.13-.49-610-2374a122.9,122.9,0,0,1,88-149.88l.49-.13,3245.4-833.92a122.9,122.9,0,0,1,149.88,88l.13.49,610,2374a122.9,122.9,0,0,1-88,149.88Z"/><path class="cls-34" d="M9992.69,3021.31,6794.2,3843.24a121.2,121.2,0,0,1-147.5-87.2L6045.48,1416a121.2,121.2,0,0,1,87.2-147.5L9331.07,446.84a121.2,121.2,0,0,1,147.5,87.2l601.22,2340.07A121.2,121.2,0,0,1,9992.69,3021.31Z"/><path class="cls-4" d="M9986.09,2989.91,6826,3801.94a120,120,0,0,1-145.7-86.1l-594-2311.57a120,120,0,0,1,86.1-145.7l3160.09-812a120,120,0,0,1,145.7,86.1l594,2311.57A120,120,0,0,1,9986.09,2989.91Z"/><path class="cls-33" d="M6594.49,1763l-262.11,66.9a21,21,0,0,1-25.5-15.1h0a21,21,0,0,1,15.1-25.5l262.11-67.3a21,21,0,0,1,25.5,15.1h0a21,21,0,0,1-14.71,25.8Zm33.4,45.7h0a21,21,0,0,0-25.5-15.1l-262.11,67.3a21,21,0,0,0-15.1,25.5h0a21,21,0,0,0,25.5,15.1l262.11-67.3a21,21,0,0,0,14.7-25.6Zm18.3,71.2h0a21,21,0,0,0-25.5-15.1l-262.11,67.3a21,21,0,0,0-15.1,25.5h0a21,21,0,0,0,25.5,15.1l262.11-67.3a21,21,0,0,0,15-25.5Zm18.3,71.2h0A21,21,0,0,0,6639,1936l-262.11,67.3a21,21,0,0,0-15.1,25.5h0a21,21,0,0,0,25.55,15.14l.15,0,262.11-67.3a21,21,0,0,0,14.8-25.6Zm18.3,71.2h0a21,21,0,0,0-25.5-15.1l-262.11,67.3a21,21,0,0,0-15.1,25.5h0a21,21,0,0,0,25.5,15.1l262.11-67.3a21,21,0,0,0,15-25.6Z"/><path class="cls-5" d="M-3507.2,3063.91l3245.4,833.92a122.9,122.9,0,0,0,149.88-88l.13-.49,610-2374a122.9,122.9,0,0,0-88-149.88l-.49-.13L-2836,451.74a122.9,122.9,0,0,0-149.88,88l-.13.49-609.72,2374.07a122.9,122.9,0,0,0,88.49,149.6Z"/><path class="cls-34" d="M-3511.8,3021.31l3198.49,821.92A121.2,121.2,0,0,0-165.8,3756L435.41,1416a121.2,121.2,0,0,0-87.2-147.5L-2850.18,446.84A121.2,121.2,0,0,0-2997.78,534v0L-3599,2873.81A121.2,121.2,0,0,0-3511.8,3021.31Z"/><rect class="cls-4" x="-2911.48" y="373.28" width="2626.08" height="3502.1" rx="119.7" ry="119.7" transform="translate(-3258.15 47.52) rotate(-75.59)"/><path class="cls-33" d="M-102.7,1722.28l261.61,67.6a21,21,0,0,1,15.1,25.5h0a21,21,0,0,1-25.5,15.1l-262.11-67.3a21,21,0,0,1-15.1-25.5h0a21,21,0,0,1,25.28-15.58Zm258.91,164.1h0a21,21,0,0,0-15.1-25.5L-121,1793.58a21,21,0,0,0-25.5,15.1h0a21,21,0,0,0,15.1,25.5l262.11,67.3a21,21,0,0,0,25-15.1Zm-18.9,71.2h0a21,21,0,0,0-15.1-25.5l-262.11-67.3a21,21,0,0,0-25.5,15.1h0a21,21,0,0,0,15.1,25.5l262.11,67.3A21,21,0,0,0,137.3,1957.58Zm-18.3,71.2h0a21,21,0,0,0-15.1-25.5L-158.2,1936a21,21,0,0,0-25.5,15.1h0a21,21,0,0,0,15.1,25.5l262.11,67.3a21,21,0,0,0,25.59-15.07v0Zm-18.1,71.1h0a21,21,0,0,0-15.1-25.5l-262.11-67.3a21,21,0,0,0-25.5,15.1h0a21,21,0,0,0,15.1,25.5L75.4,2115A21,21,0,0,0,100.9,2099.89Z"/><path class="cls-5" d="M896.53,2337.49c-34.4,26.2-66.7,58.4-80,100-22.2,70,22.6,123.2,87.8,114,78.8-11.1,161.3-95.2,246.91-73.8a107.5,107.5,0,0,1,85.5,90c8,47.4,0,95.9,0,143.9s10.5,100,46.2,132.1,128.6,28.7,150.8-14c-15,54.6-76,63.6-123.7,58.1a132.9,132.9,0,0,1-107.3-84.5c-14.1-38.5-9.2-81-10-122s-10.6-85.7-43.3-110.7c-85.7-65.4-189.21,90.8-300,94.5-77.8,2.5-158.9-57.5-165.1-135.1s26.7-152.3,59-223.21C788.92,2309.89,850.73,2334.39,896.53,2337.49Z"/><polygon class="cls-5" points="1410.54 1489.87 1385.74 1397.17 1086.33 1477.87 939.93 1233.66 885.93 1249.96 1014.93 1497.07 738.42 1571.57 745.72 1617.37 1047.53 1559.47 1216.64 1883.48 1287.24 1813.28 1126.13 1544.47 1410.54 1489.87"/><path class="cls-5" d="M999.53,3143.52c-133.82,0-242.31,108.48-242.31,242.31s108.48,242.31,242.31,242.31,242.31-108.48,242.31-242.31-108.48-242.31-242.31-242.31Zm-13.9,416.41A178.91,178.91,0,1,1,1164.53,3381a178.91,178.91,0,0,1-178.91,178.91Z"/><path class="cls-3" d="M5397.46,3733.13c-133.82,0-242.31,108.48-242.31,242.31s108.48,242.31,242.31,242.31,242.31-108.48,242.31-242.31h0C5639.77,3841.62,5531.28,3733.13,5397.46,3733.13Zm-14.3,416.81A178.91,178.91,0,1,1,5562.06,3971a178.9,178.9,0,0,1-178.91,178.91Z"/></g></g></g></svg>